<?xml version="1.0" standalone="no"?>
<!DOCTYPE svg PUBLIC "-//W3C//DTD SVG 20010904//EN"
 "http://www.w3.org/TR/2001/REC-SVG-20010904/DTD/svg10.dtd">
<svg version="1.0" xmlns="http://www.w3.org/2000/svg"
 width="400.000000pt" height="400.000000pt" viewBox="0 0 400.000000 400.000000"
 preserveAspectRatio="xMidYMid meet">
<metadata>
Created by potrace 1.14, written by Peter Selinger 2001-2017
</metadata>
<g transform="translate(0.000000,400.000000) scale(0.100000,-0.100000)"
fill="#000000" stroke="none">
<path d="M263 3722 l-133 -3 0 -1709 0 -1710 945 0 945 0 0 85 0 85 -490 0
-490 0 0 365 0 365 -60 0 -60 0 0 -365 0 -365 -315 0 -315 0 0 810 0 810 370
0 370 0 0 60 0 60 -370 0 -370 0 0 675 0 675 635 0 635 0 0 -1205 0 -1205 230
0 230 0 0 60 0 60 -170 0 -170 0 0 745 0 745 430 0 430 0 0 65 0 65 -430 0
-430 0 0 340 0 340 505 0 c498 0 505 0 505 20 0 19 7 20 215 20 202 0 215 -1
215 -18 0 -17 14 -19 173 -25 94 -4 232 -7 305 -7 l132 0 0 -335 0 -335 -220
0 -220 0 0 -65 0 -65 305 0 305 0 0 479 0 479 -47 5 c-27 2 -202 5 -390 6
-338 1 -343 1 -343 -19 0 -19 -6 -20 -215 -20 -209 0 -215 1 -215 20 0 20 -1
21 -1147 18 -632 -2 -1208 -4 -1280 -6z"/>
<path d="M2530 2150 l0 -80 600 0 600 0 0 -800 0 -800 -505 0 -505 0 0 320 0
320 330 0 330 0 0 80 0 80 -415 0 -415 0 0 -485 0 -485 675 0 675 0 0 965 0
965 -685 0 -685 0 0 -80z"/>
</g>
</svg>
