<svg xmlns:inkscape="http://www.inkscape.org/namespaces/inkscape"
    xmlns="http://www.w3.org/2000/svg" xmlns:svg="http://www.w3.org/2000/svg" version="1.1"
    id="svg2" width="220" height="120" viewBox="0 0 4000 2000">
    <defs id="defs6">
        <clipPath clipPathUnits="userSpaceOnUse" id="clipPath44">
            <path d="M 0,3000 H 3000 V 0 H 0 Z" id="path42" />
        </clipPath>
    </defs>
    <g id="g8" inkscape:groupmode="layer" inkscape:label="LOGO"
        transform="matrix(1.6,0,0,-1.6,-375,3500)">
        <g id="g10" transform="translate(1470.55,1859.54)">
            <path
                d="m 0,0 v -193.06 h -200.59 v 34.78 h 165.81 v 123.5 h -202.97 v -372.68 h -34.78 V 0 Z"
                style="fill:#3a3a3a;fill-opacity:1;fill-rule:nonzero;stroke:none" id="path12" />
        </g>
        <g id="g14" transform="translate(1643.7,1486.72)">
            <path d="M 0,0 V -34.64 H -101.54 V 372.82 H -66.9 V 0 Z"
                style="fill:#3a3a3a;fill-opacity:1;fill-rule:nonzero;stroke:none" id="path16" />
        </g>
        <g id="g18" transform="translate(1939.9,1736)">
            <path
                d="m 0,0 v -283.92 h -224.59 v 125.493 H -67.7 v -34.72 H -189.87 V -249.2 H -34.72 V -34.71 H -224.59 V 0 Z"
                style="fill:#3a3a3a;fill-opacity:1;fill-rule:nonzero;stroke:none" id="path20" />
        </g>
        <g id="g22" transform="translate(2236.1001,1736)">
            <path d="m 0,0 v -283.92 h -34.72 v 249.21 h -155.15 v -249.21 h -34.72 V 0 Z"
                style="fill:#3a3a3a;fill-opacity:1;fill-rule:nonzero;stroke:none" id="path24" />
        </g>
        <g id="g26" transform="translate(2555.0283,1577.5725)">
            <path
                d="m 0,0 h -165.859 l 71.795,199.58 31.737,82.386 h -34.325 l -150.663,-407.458 h 31.984 l 36.091,90.982 H 12.689 m 24.321,6.816 33.506,-97.798 h 33.79 L -9.614,183.985 -26.526,143.191 25.017,7.275"
                style="fill:#3a3a3a;fill-opacity:1;fill-rule:nonzero;stroke:none" id="path28" />
        </g>
        <g id="g30" transform="translate(1068.0323,1577.5725)">
            <path
                d="m -257,-15 h 242 v -334 h -223 v 152 h 140"
                style="stroke: #007c78;stroke-width: 30px;fill: none;" id="path32" />
        </g>
        <g id="g34" transform="translate(1068.03,1859.73)">
            <path
                d="m 0,0 v -180.63 h -112.89 v 22.16 h 83.34 v 128.92 l -115.51,1.8 v 8.49 h -83.71 v -8.49 L -420,-28.51 v -129.96 h 163.32 v -22.16 H -420 v -283.53 h 65.06 v -22.16 h -86.32 v 457.73 l -241.41,-0.96 v -256.3 h 139.59 v -22.16 h -139.59 v -308.6 h 119.72 v 138.49 h 22.16 v -138.49 h 185.85 v -29.55 H -712.22 V 0 l 483.45,1.79 V -6.7 h 83.71 v 8.49 z"
                style="fill:#3a3a3a;fill-opacity:1;fill-rule:nonzero;stroke:none" id="path36" />
        </g>
        <g id="g38">
            <g id="g40" clip-path="url(#clipPath44)">
                <g id="g46" transform="translate(1282.371,1279.1202)">
                    <path
                        d="m 0,0 c -0.604,-31.718 -17.994,-48.483 -50.286,-48.483 h -17.742 v 97.137 h 17.742 C -17.994,48.654 -0.604,31.889 0,0.171 Z m 14.107,19.474 c -1.269,5.82 -3.212,11.167 -5.79,15.919 -5.921,10.774 -13.211,18.517 -21.679,23.038 -8.71,4.854 -22.363,7.291 -40.649,7.291 H -84.35 V -65.551 h 30.339 c 18.296,0 31.939,2.437 40.579,7.25 8.538,4.562 15.838,12.315 21.759,23.089 2.558,4.722 4.511,10.079 5.78,15.909 1.289,5.921 2.004,12.436 2.124,19.383 -0.12,6.948 -0.835,13.473 -2.124,19.394"
                        style="fill:#3a3a3a;fill-opacity:1;fill-rule:nonzero;stroke:none"
                        id="path48" />
                </g>
                <g id="g50" transform="translate(1408.3668,1327.7745)">
                    <path
                        d="M 0,0 V 17.067 H -71.008 V -114.205 H 0 v 17.067 H -55.24 V -56.76 H 0 v 16.383 H -55.24 V 0 Z"
                        style="fill:#3a3a3a;fill-opacity:1;fill-rule:nonzero;stroke:none"
                        id="path52" />
                </g>
                <g id="g54" transform="translate(1508.9784,1274.0251)">
                    <path
                        d="m 0,0 c -1.017,0.866 -2.427,2.155 -4.31,3.947 -2.91,2.87 -7.139,6.726 -12.606,11.529 -4.844,4.431 -8.751,8.046 -11.701,10.825 -3.061,2.88 -5.175,4.974 -6.444,6.384 l -0.332,0.362 -0.242,0.443 c -1.561,2.759 -2.356,5.548 -2.356,8.287 0,3.796 1.52,7.099 4.4,9.566 2.377,2.447 5.991,3.675 10.734,3.675 6.847,0 13.402,-3.826 19.534,-11.398 L 7.995,53.961 c -2.286,2.497 -4.481,4.702 -6.555,6.575 -2.789,2.527 -5.508,4.481 -8.055,5.79 l -0.222,0.131 c -4.984,2.93 -10.22,4.36 -16.02,4.36 -8.398,0 -15.446,-2.84 -21.558,-8.68 -5.851,-5.891 -8.69,-12.737 -8.69,-20.944 0,-5.327 1.933,-10.935 5.75,-16.675 1.913,-2.99 4.994,-6.645 9.183,-10.935 4.329,-4.43 9.898,-9.636 16.533,-15.466 3.565,-3.162 6.586,-5.921 8.982,-8.206 2.497,-2.397 4.38,-4.36 5.75,-6.012 l 0.372,-0.523 c 2.356,-3.847 3.555,-7.764 3.555,-11.67 0,-4.37 -1.833,-8.398 -5.448,-11.943 l -0.312,-0.271 c -3.857,-3.152 -8.388,-4.743 -13.463,-4.743 -8.428,0 -15.919,5.427 -22.313,16.151 l -13.16,-8.267 c 8.407,-15.526 19.836,-23.088 34.819,-23.088 10.633,0 18.829,3.02 25.072,9.243 6.304,6.233 9.365,14.137 9.365,24.196 C 11.58,-16.805 7.794,-7.965 0,0"
                        style="fill:#3a3a3a;fill-opacity:1;fill-rule:nonzero;stroke:none"
                        id="path56" />
                </g>
                <path d="m 1558.67,1213.57 h 15.758 v 131.272 h -15.758 z"
                    style="fill:#3a3a3a;fill-opacity:1;fill-rule:nonzero;stroke:none" id="path58" />
                <g id="g60" transform="translate(1681.4537,1277.3177)">
                    <path
                        d="M 0,0 V -15.215 H 41.233 L 37.8,-21.83 c -2.014,-3.897 -4.491,-7.522 -7.351,-10.784 -2.9,-3.303 -6.223,-6.173 -9.867,-8.539 -3.646,-2.366 -7.623,-4.239 -11.802,-5.568 -4.229,-1.339 -8.71,-2.014 -13.311,-2.014 -6.636,0 -12.989,1.349 -18.89,4.018 -5.84,2.648 -11.006,6.313 -15.366,10.895 -4.339,4.561 -7.803,9.978 -10.3,16.09 -2.508,6.122 -3.776,12.728 -3.776,19.615 0,6.968 1.268,13.583 3.776,19.685 2.497,6.072 5.961,11.469 10.3,16.03 4.36,4.582 9.526,8.247 15.366,10.895 5.901,2.669 12.254,4.018 18.89,4.018 6.495,0 12.677,-1.279 18.356,-3.816 4.269,-1.913 8.217,-4.38 11.771,-7.381 l 10.855,9.928 c -4.914,4.572 -10.493,8.297 -16.645,11.117 -7.491,3.423 -15.678,5.165 -24.337,5.165 -5.679,0 -11.207,-0.775 -16.443,-2.316 -5.256,-1.54 -10.251,-3.756 -14.842,-6.595 -4.602,-2.85 -8.841,-6.293 -12.577,-10.231 -3.755,-3.947 -7.028,-8.407 -9.747,-13.281 -2.718,-4.863 -4.843,-10.16 -6.313,-15.728 -1.48,-5.568 -2.225,-11.449 -2.225,-17.49 0,-6.031 0.745,-11.912 2.215,-17.48 1.48,-5.578 3.605,-10.875 6.323,-15.738 2.719,-4.864 5.992,-9.324 9.747,-13.271 3.736,-3.948 7.975,-7.381 12.577,-10.231 4.591,-2.839 9.586,-5.055 14.842,-6.605 5.236,-1.531 10.764,-2.306 16.443,-2.306 5.679,0 11.207,0.775 16.443,2.306 5.256,1.55 10.25,3.766 14.842,6.605 4.601,2.85 8.83,6.293 12.576,10.231 3.756,3.947 7.029,8.407 9.747,13.271 2.719,4.873 4.844,10.16 6.314,15.738 1.319,4.984 2.054,10.22 2.195,15.597 z"
                        style="fill:#3a3a3a;fill-opacity:1;fill-rule:nonzero;stroke:none"
                        id="path62" />
                </g>
                <g id="g64" transform="translate(1856.8694,1344.8418)">
                    <path
                        d="M 0,0 V -104.156 L -64.07,0 H -81.178 V -131.272 H -65.51 V -28.053 L -0.806,-131.272 H 16.423 L 16.423,0 Z"
                        style="fill:#3a3a3a;fill-opacity:1;fill-rule:nonzero;stroke:none"
                        id="path66" />
                </g>
                <g id="g68" transform="translate(2039.6858,1274.0251)">
                    <path
                        d="m 0,0 c -1.007,0.856 -2.457,2.185 -4.31,3.947 -2.92,2.87 -7.139,6.726 -12.606,11.529 -4.834,4.421 -8.74,8.035 -11.701,10.825 -3.071,2.89 -5.175,4.974 -6.444,6.384 l -0.332,0.362 -0.252,0.443 c -1.561,2.759 -2.346,5.548 -2.346,8.287 0,3.796 1.52,7.099 4.39,9.566 2.386,2.447 5.991,3.675 10.744,3.675 6.847,0 13.402,-3.826 19.534,-11.398 L 7.985,53.961 c -2.276,2.497 -4.471,4.702 -6.545,6.575 -2.799,2.527 -5.508,4.481 -8.055,5.79 l -0.222,0.131 c -4.984,2.93 -10.22,4.36 -16.02,4.36 -8.398,0 -15.456,-2.84 -21.568,-8.69 -5.841,-5.881 -8.68,-12.727 -8.68,-20.934 0,-5.327 1.933,-10.935 5.75,-16.675 1.913,-2.99 4.984,-6.645 9.183,-10.935 4.329,-4.43 9.898,-9.636 16.533,-15.466 3.555,-3.152 6.565,-5.911 8.972,-8.206 2.507,-2.397 4.39,-4.36 5.76,-6.012 l 0.372,-0.523 c 2.356,-3.837 3.554,-7.764 3.554,-11.67 0,-4.381 -1.842,-8.398 -5.457,-11.943 l -0.302,-0.271 c -3.857,-3.152 -8.388,-4.743 -13.473,-4.743 -8.428,0 -15.909,5.427 -22.303,16.151 l -13.16,-8.267 c 8.407,-15.526 19.826,-23.088 34.819,-23.088 10.623,0 18.829,3.02 25.072,9.243 6.304,6.233 9.355,14.137 9.355,24.196 C 11.57,-16.805 7.783,-7.965 0,0"
                        style="fill:#3a3a3a;fill-opacity:1;fill-rule:nonzero;stroke:none"
                        id="path70" />
                </g>
                <g id="g72" transform="translate(2081.926,1344.8418)">
                    <path d="M 0,0 V -17.168 H 35.806 V -131.272 H 52.873 V -17.168 H 89.334 V 0 Z"
                        style="fill:#3a3a3a;fill-opacity:1;fill-rule:nonzero;stroke:none"
                        id="path74" />
                </g>
                <g id="g76" transform="translate(2281.4373,1344.8418)">
                    <path
                        d="m 0,0 v -85.014 c 0,-4.109 -0.755,-8.015 -2.256,-11.62 -1.48,-3.565 -3.514,-6.736 -6.061,-9.415 -2.568,-2.698 -5.609,-4.853 -9.052,-6.394 -3.484,-1.561 -7.27,-2.356 -11.248,-2.356 -3.917,0 -7.673,0.795 -11.156,2.356 -3.434,1.541 -6.485,3.696 -9.053,6.394 -2.547,2.679 -4.591,5.85 -6.061,9.415 -1.49,3.605 -2.256,7.511 -2.256,11.62 V 0 h -15.768 v -84.43 c 0,-6.485 1.188,-12.637 3.524,-18.276 2.346,-5.689 5.558,-10.703 9.556,-14.902 3.977,-4.199 8.72,-7.562 14.077,-10.019 5.296,-2.417 11.066,-3.645 17.137,-3.645 6.072,0 11.842,1.228 17.138,3.645 5.367,2.457 10.12,5.83 14.137,10.029 4.018,4.199 7.25,9.213 9.596,14.892 2.326,5.649 3.514,11.801 3.514,18.276 l 0,84.43 z"
                        style="fill:#3a3a3a;fill-opacity:1;fill-rule:nonzero;stroke:none"
                        id="path78" />
                </g>
                <g id="g80" transform="translate(2424.9636,1279.1202)">
                    <path
                        d="m 0,0 c -0.604,-31.718 -17.994,-48.483 -50.285,-48.483 h -17.743 v 97.137 h 17.743 C -17.994,48.654 -0.604,31.889 0,0.171 Z m 14.107,19.474 c -1.269,5.81 -3.212,11.167 -5.79,15.919 -5.921,10.774 -13.211,18.517 -21.679,23.038 -8.71,4.854 -22.364,7.291 -40.639,7.291 H -84.35 V -65.551 h 30.349 c 18.286,0 31.929,2.437 40.569,7.25 8.538,4.562 15.838,12.315 21.759,23.089 2.558,4.722 4.511,10.089 5.78,15.909 1.289,5.921 2.004,12.446 2.124,19.383 -0.12,6.948 -0.835,13.473 -2.124,19.394"
                        style="fill:#3a3a3a;fill-opacity:1;fill-rule:nonzero;stroke:none"
                        id="path82" />
                </g>
                <path d="m 2479.952,1213.57 h 15.768 v 131.272 h -15.768 z"
                    style="fill:#3a3a3a;fill-opacity:1;fill-rule:nonzero;stroke:none" id="path84" />
                <g id="g86" transform="translate(2630.2847,1243.2638)">
                    <path
                        d="m 0,0 c -4.43,-4.672 -9.384,-8.297 -14.691,-10.744 -5.387,-2.487 -11.298,-3.746 -17.571,-3.746 -11.106,0 -21.085,3.726 -29.644,11.077 -11.287,9.666 -17.006,22.776 -17.006,38.967 0,14.349 4.4,26.311 13.09,35.545 8.599,9.676 19.675,14.59 32.916,14.59 13.11,0 24.227,-4.914 33.017,-14.6 C 9.093,61.201 13.654,49.238 13.654,35.554 13.654,21.276 9.062,9.314 0,0 m 10.563,82.457 c -12.224,12.858 -26.231,19.121 -42.825,19.121 -11.005,0 -21.447,-2.94 -31.033,-8.74 -9.656,-5.87 -17.238,-13.875 -22.525,-23.794 l -0.05,-0.09 c -5.538,-9.838 -8.347,-21.075 -8.347,-33.4 0,-17.349 5.981,-32.886 17.792,-46.177 11.972,-12.838 26.421,-19.071 44.163,-19.071 17.229,0 31.467,6.072 43.52,18.578 C 23.22,1.48 29.05,16.745 29.05,35.554 29.05,53.9 23.008,69.236 10.563,82.457"
                        style="fill:#3a3a3a;fill-opacity:1;fill-rule:nonzero;stroke:none"
                        id="path88" />
                </g>
            </g>
        </g>
    </g>
</svg>